<?xml version="1.0" encoding="utf-8"?>
<!-- Generator: Adobe Illustrator 27.5.0, SVG Export Plug-In . SVG Version: 6.00 Build 0)  -->
<svg version="1.1" id="Capa_1" xmlns="http://www.w3.org/2000/svg" xmlns:xlink="http://www.w3.org/1999/xlink" x="0px" y="0px"
	 viewBox="0 0 406 461.7" style="enable-background:new 0 0 406 461.7;" xml:space="preserve">
<style type="text/css">
	.st0{opacity:0.23;}
	
		.st1{clip-path:url(#SVGID_00000093173653794244764090000007721866353527944085_);fill:url(#SVGID_00000015314348291379729390000017456391059902876558_);}
</style>
<g class="st0">
	<defs>
		<rect id="SVGID_1_" x="42.5" y="10.3" class="st0" width="350.9" height="435.3"/>
	</defs>
	<clipPath id="SVGID_00000135662962374636006880000010856013401416792207_">
		<use xlink:href="#SVGID_1_"  style="overflow:visible;"/>
	</clipPath>
	
		<linearGradient id="SVGID_00000050622153300329973520000013601861281899543956_" gradientUnits="userSpaceOnUse" x1="936.2834" y1="558.1449" x2="1237.9357" y2="35.6679" gradientTransform="matrix(1 0 0 1 -645.5361 0)">
		<stop  offset="0" style="stop-color:#FFFFFF"/>
		<stop  offset="6.195910e-02" style="stop-color:#F8F8F8"/>
		<stop  offset="0.1538" style="stop-color:#E4E4E4"/>
		<stop  offset="0.2641" style="stop-color:#C3C3C3"/>
		<stop  offset="0.3877" style="stop-color:#969696"/>
		<stop  offset="0.5096" style="stop-color:#626262"/>
		<stop  offset="0.657" style="stop-color:#868686"/>
		<stop  offset="0.887" style="stop-color:#B9B8B8"/>
		<stop  offset="1" style="stop-color:#CDCCCC"/>
	</linearGradient>
	
		<path style="clip-path:url(#SVGID_00000135662962374636006880000010856013401416792207_);fill:url(#SVGID_00000050622153300329973520000013601861281899543956_);" d="
		M538.6,10.3c23.2,0,32.6,16.4,21.1,36.5L419.5,289.7c-11.6,20.1-30.5,20.1-42.1,0L237.1,46.8c-11.6-20-2.1-36.5,21.1-36.5H538.6z
		 M366.4,434.2c23.2,0,32.6-16.4,21.1-36.5L247.2,154.9c-11.6-20.1-30.5-20.1-42.1,0L64.9,397.7c-11.6,20.1-2.1,36.5,21,36.5H366.4z
		 M711.1,434.2c23.2,0,32.6-16.4,21.1-36.5L592,154.9c-11.6-20.1-30.5-20.1-42.1,0L409.6,397.7c-11.6,20.1-2.1,36.5,21.1,36.5H711.1
		z"/>
</g>
</svg>
