<?xml version="1.0" encoding="utf-8"?>
<!-- Generator: Adobe Illustrator 27.5.0, SVG Export Plug-In . SVG Version: 6.00 Build 0)  -->
<svg version="1.1" id="Capa_1" xmlns="http://www.w3.org/2000/svg" xmlns:xlink="http://www.w3.org/1999/xlink" x="0px" y="0px"
	 viewBox="0 0 152.1 68.6" style="enable-background:new 0 0 152.1 68.6;" xml:space="preserve">
<style type="text/css">
	.st0{fill:#193C6B;}
	.st1{fill:#888B8D;}
	.st2{fill:#2D2A26;}
	.st3{font-family:'Helvetica-Bold';}
	.st4{font-size:8.5278px;}
</style>
<g>
	<path class="st0" d="M44.5,14c1.7,0,2.4,1.2,1.6,2.7L35.7,34.6c-0.9,1.5-2.3,1.5-3.1,0L22.2,16.7c-0.9-1.5-0.2-2.7,1.6-2.7H44.5z"
		/>
	<path class="st0" d="M11.1,45.2c-1.7,0-2.4-1.2-1.6-2.7l10.3-17.9c0.9-1.5,2.3-1.5,3.1,0l10.3,17.9c0.9,1.5,0.2,2.7-1.6,2.7H11.1z"
		/>
	<path class="st0" d="M36.5,45.2c-1.7,0-2.4-1.2-1.6-2.7l10.3-17.9c0.9-1.5,2.3-1.5,3.1,0l10.3,17.9c0.9,1.5,0.2,2.7-1.6,2.7H36.5z"
		/>
	<g>
		<g>
			<rect x="60.5" y="14" class="st1" width="1.6" height="31.2"/>
		</g>
	</g>
	<g>
		<path class="st1" d="M70,18.5h5l0,1.8c0,1.3-0.3,2.2-0.9,2.5c-0.6,0.4-2,0.6-4.2,0.6c-2,0-3.3-0.3-3.9-0.8c-0.6-0.5-1-1.5-1-3.1
			c0-2,0.1-3.3,0.4-3.8c0.3-0.6,0.8-1.1,1.5-1.3c0.6-0.2,1.8-0.3,3.3-0.3c2,0,3.4,0.2,3.9,0.5c0.6,0.3,0.9,1.1,0.9,2.3h-2.2
			c0-0.6-0.2-1-0.5-1.1c-0.3-0.1-1-0.2-2.2-0.2c-1.3,0-2.1,0.1-2.4,0.4c-0.3,0.3-0.5,0.8-0.5,1.8l0,0.9v1.2c0,0.9,0.2,1.5,0.5,1.7
			c0.3,0.2,1.1,0.4,2.3,0.4c1.2,0,1.9-0.1,2.3-0.3c0.3-0.2,0.5-0.7,0.5-1.5l0-0.4H70V18.5z"/>
		<path class="st1" d="M76.4,23.3v-9.1H82c1.4,0,2.4,0.2,2.9,0.6c0.5,0.4,0.8,1.1,0.8,2.1c0,0.9-0.1,1.6-0.4,1.9
			c-0.3,0.3-0.8,0.6-1.6,0.7v0.1c1.3,0.1,1.9,0.7,1.9,1.8v2h-2.2v-1.7c0-0.9-0.6-1.4-1.7-1.4h-3.1v3.1H76.4z M78.5,18.8h3.1
			c0.7,0,1.2-0.1,1.5-0.3c0.2-0.2,0.4-0.6,0.4-1.3c0-0.7-0.1-1.1-0.3-1.3c-0.2-0.2-0.7-0.3-1.4-0.3h-3.3V18.8z"/>
		<path class="st1" d="M94.3,14.2h2.2v6.1c0,1.3-0.3,2.1-0.9,2.5c-0.6,0.4-1.9,0.6-3.8,0.6c-2,0-3.3-0.2-3.9-0.6
			c-0.6-0.4-0.9-1.2-0.9-2.4v-6.2h2.2v6.2c0,0.7,0.2,1.1,0.5,1.3c0.3,0.2,1,0.3,2.1,0.3c1.1,0,1.9-0.1,2.2-0.3
			c0.3-0.2,0.4-0.6,0.4-1.3V14.2z"/>
		<path class="st1" d="M97.9,23.3v-9.1h4.6h0.6c1.5,0,2.6,0.2,3.1,0.6c0.5,0.4,0.8,1.3,0.8,2.5c0,1.2-0.3,2-0.8,2.4
			c-0.5,0.4-1.6,0.6-3.1,0.6l-0.5,0h-2.6v2.9H97.9z M100.1,18.9h2.5c1,0,1.6-0.1,1.9-0.3c0.3-0.2,0.4-0.6,0.4-1.3
			c0-0.8-0.1-1.3-0.3-1.4c-0.2-0.2-0.8-0.3-1.7-0.3h-2.7V18.9z"/>
		<path class="st1" d="M113,14.1c2.1,0,3.4,0.3,4,0.8c0.6,0.5,0.9,1.8,0.9,3.7c0,2.1-0.3,3.4-0.9,3.9c-0.6,0.5-2.1,0.8-4.4,0.8
			c-2.1,0-3.4-0.3-4-0.8c-0.6-0.5-0.9-1.7-0.9-3.5c0-2.2,0.3-3.5,0.9-4.1C109.2,14.4,110.7,14.1,113,14.1z M112.9,15.6
			c-1.5,0-2.3,0.1-2.5,0.4c-0.2,0.3-0.4,1.3-0.4,3.1c0,1.3,0.1,2.1,0.4,2.4c0.3,0.3,1.1,0.4,2.5,0.4c1.3,0,2.1-0.2,2.4-0.5
			c0.3-0.3,0.4-1.2,0.4-2.7c0-1.5-0.1-2.4-0.4-2.7C115.1,15.7,114.3,15.6,112.9,15.6z"/>
	</g>
	<path class="st2" d="M81.5,35.9c-0.4,0.8-1.4,1.3-3,1.5c1.2,0.2,2.1,0.6,2.6,1.1c0.5,0.6,0.8,1.7,0.8,3.2v3.4h-4v-2.8
		c0-1.4-0.2-2.3-0.5-2.7C77,39.3,76.1,39,74.8,39h-5.5v6.1h-4V26.5h10.2c2.5,0,4.2,0.4,5.2,1.3c1,0.8,1.5,2.3,1.5,4.3
		C82.1,33.9,81.9,35.2,81.5,35.9z M77.5,30.1c-0.4-0.4-1.3-0.5-2.7-0.5h-5.6V36h5.7c1.2,0,2.1-0.2,2.5-0.6c0.4-0.4,0.7-1.3,0.7-2.7
		C78.1,31.4,77.9,30.5,77.5,30.1z"/>
	<path class="st2" d="M83.8,45.2V26.5H98v3.1H87.8v4.7h9.7v2.9h-9.7v4.9h10.3v3H83.8z"/>
	<path class="st2" d="M116.5,43.9c-1,1-3.5,1.5-7.4,1.5c-3.3,0-5.7-0.4-7.1-1.3c-1.4-0.9-2.1-2.7-2.1-5.5v-4.7c0-3,0.7-5,2.1-6
		c1.4-1,3.7-1.5,7.1-1.5c3.6,0,5.9,0.4,7.1,1.1c1.2,0.7,1.8,2.3,1.8,4.8H114c0-1-0.3-1.7-0.8-2.1c-0.5-0.4-1.8-0.6-3.9-0.6
		c-2.4,0-3.8,0.2-4.5,0.7c-0.6,0.5-0.9,1.6-0.9,3.5v4.5c0,1.8,0.3,2.9,0.8,3.4c0.5,0.5,2,0.8,4.4,0.8c2.2,0,3.6-0.2,4.1-0.7
		c0.5-0.5,0.8-1.6,0.8-3.5h-5.3v-2.7h9.3v3.6C118,41.3,117.5,42.9,116.5,43.9z"/>
	<path class="st2" d="M120,45.1V26.5h4v18.6H120z"/>
	<path class="st2" d="M141,44c-1.3,0.9-3.6,1.4-6.9,1.4c-3.2,0-5.4-0.4-6.7-1.3c-1.3-0.9-2-2.7-2-5.6v-5.1c0-2.9,0.6-4.8,1.9-5.7
		c1.3-0.9,3.6-1.3,6.8-1.3c3.2,0,5.5,0.4,6.8,1.2c1.4,0.8,2.1,2.6,2.1,5.4v6C143,41.4,142.3,43.1,141,44z M139,32.9
		c0-1.4-0.3-2.3-0.9-2.7c-0.6-0.4-1.9-0.7-3.9-0.7c-2.1,0-3.4,0.3-4,0.7c-0.6,0.5-0.9,1.7-0.9,3.5v4.4c0,1.8,0.3,2.9,0.8,3.4
		c0.5,0.5,1.9,0.8,3.9,0.8c1.9,0,3.2-0.3,3.9-0.8c0.7-0.5,1.1-1.5,1.1-3.1V32.9z"/>
	<path class="st2" d="M144.8,27.5c0,0.1,0,0.2-0.1,0.3c-0.1,0-0.2,0.1-0.3,0.1h-0.3v-0.6h0.4c0.1,0,0.2,0,0.3,0.1
		C144.8,27.3,144.8,27.4,144.8,27.5 M145.2,28.8c0-0.1-0.1-0.2-0.1-0.4c0-0.2-0.1-0.4-0.3-0.4c0.1,0,0.2-0.1,0.2-0.2
		c0.1-0.1,0.1-0.2,0.1-0.3c0-0.2-0.1-0.3-0.2-0.4c-0.1-0.1-0.3-0.1-0.5-0.1h-0.8v1.8h0.3V28h0.3c0.3,0,0.4,0.1,0.4,0.3
		c0,0.2,0,0.4,0,0.4H145.2z M145.8,27.9c0,0.4-0.1,0.7-0.4,1c-0.3,0.3-0.6,0.4-0.9,0.4c-0.4,0-0.7-0.1-0.9-0.4
		c-0.3-0.3-0.4-0.6-0.4-1c0-0.4,0.1-0.7,0.4-1c0.3-0.3,0.6-0.4,0.9-0.4c0.4,0,0.7,0.1,0.9,0.4C145.6,27.2,145.8,27.5,145.8,27.9
		 M146,27.9c0-0.4-0.2-0.8-0.5-1.1c-0.3-0.3-0.7-0.5-1.1-0.5c-0.4,0-0.8,0.2-1.1,0.5c-0.3,0.3-0.5,0.7-0.5,1.1
		c0,0.4,0.2,0.8,0.5,1.1c0.3,0.3,0.7,0.5,1.1,0.5c0.4,0,0.8-0.2,1.1-0.5C145.9,28.7,146,28.3,146,27.9"/>
	<text transform="matrix(1 0 0 1 22.5814 61.1967)" class="st3 st4">POWERED BY TACHUELA</text>
</g>
</svg>
