<?xml version="1.0" encoding="utf-8"?>
<!-- Generator: Adobe Illustrator 27.5.0, SVG Export Plug-In . SVG Version: 6.00 Build 0)  -->
<svg version="1.1" id="Capa_1" xmlns="http://www.w3.org/2000/svg" xmlns:xlink="http://www.w3.org/1999/xlink" x="0px" y="0px"
	 viewBox="0 0 250.7 100.6" style="enable-background:new 0 0 250.7 100.6;" xml:space="preserve">
<style type="text/css">
	.st0{fill:#888B8C;}
	.st1{fill:#193C6B;}
	.st2{fill:none;stroke:#193C6B;stroke-miterlimit:10;}
</style>
<g>
	<path class="st0" d="M37.4,48h5.2l-6.9,24.4h-4.9l-3-14.3l-0.9-4.7l-0.9,4.7l-3,14.3h-4.7L11.6,48H17l3.2,14l0.7,3.9l0.7-3.8
		L24.4,48h5.4l2.9,14l0.7,3.9l0.7-3.7L37.4,48z"/>
	<path class="st0" d="M62.7,61.7H50.9V68h13.5v4.4H45.9V48h17.9v4.3H50.9v5.2h11.9V61.7z"/>
	<path class="st0" d="M79.5,72.4H68.4V48h11.9c3,0,5.1,0.9,6.4,2.6c0.8,1,1.1,2.3,1.1,3.7c0,1.5-0.4,2.7-1.1,3.6
		c-0.4,0.5-1,1-1.9,1.4c1.2,0.5,2.2,1.2,2.8,2.2c0.6,1,1,2.2,1,3.6c0,1.4-0.4,2.7-1.1,3.9c-0.5,0.8-1,1.4-1.7,1.9
		c-0.8,0.6-1.7,1-2.8,1.2C81.9,72.3,80.8,72.4,79.5,72.4z M81.9,57c0.7-0.4,1-1.1,1-2.1c0-1.1-0.4-1.9-1.3-2.3
		c-0.8-0.3-1.7-0.4-2.9-0.4h-5.4v5.4h6C80.4,57.6,81.3,57.4,81.9,57z M79.4,61.6h-6.1v6.5h6c1.1,0,1.9-0.1,2.5-0.4
		c1.1-0.5,1.6-1.5,1.6-3.1c0-1.3-0.5-2.1-1.6-2.6C81.3,61.8,80.5,61.6,79.4,61.6z"/>
	<path class="st1" d="M122.3,20.5c-1.5-1.8-3.7-2.7-6.6-2.7c-3.9,0-6.5,1.5-7.9,4.4c-0.8,1.7-1.3,4.3-1.4,8H93.9
		c0.2-5.5,1.2-10,3-13.4c3.4-6.5,9.5-9.7,18.2-9.7c6.9,0,12.4,1.9,16.4,5.7c4.1,3.8,6.1,8.9,6.1,15.2c0,4.8-1.4,9.1-4.3,12.8
		c-1.9,2.5-5,5.3-9.3,8.3l-5.1,3.6c-3.2,2.3-5.4,3.9-6.6,4.9c-1.2,1-2.2,2.2-3,3.5h28.4v11.3H93.2c0.1-4.7,1.1-8.9,3-12.8
		c1.8-4.3,6.1-8.9,12.9-13.8c5.9-4.2,9.7-7.2,11.5-9.1c2.7-2.8,4-6,4-9.3C124.6,24.6,123.8,22.4,122.3,20.5z"/>
	<path class="st0" d="M154.4,63.6h-5.2v8.8h-5.1V48h10.6c2.5,0,4.4,0.6,5.9,1.9c1.5,1.3,2.2,3.2,2.2,5.9c0,2.9-0.7,4.9-2.2,6.1
		C159.2,63,157.1,63.6,154.4,63.6z M156.8,58.5c0.7-0.6,1-1.5,1-2.8c0-1.3-0.3-2.2-1-2.7c-0.7-0.5-1.6-0.8-2.8-0.8h-4.8v7.2h4.8
		C155.2,59.4,156.1,59.1,156.8,58.5z"/>
	<path class="st0" d="M177.1,62.8h-5.3v9.6h-5V48h12c1.7,0,3,0.2,4,0.6c0.9,0.4,1.7,1,2.3,1.7c0.5,0.6,1,1.3,1.3,2.1
		c0.3,0.8,0.5,1.6,0.5,2.6c0,1.2-0.3,2.3-0.9,3.4c-0.6,1.1-1.6,1.9-2.9,2.4c1.1,0.5,1.9,1.1,2.4,1.9s0.7,2.1,0.7,3.8v1.6
		c0,1.1,0,1.9,0.1,2.3c0.1,0.6,0.4,1.1,0.9,1.4v0.6h-5.6c-0.2-0.5-0.3-1-0.3-1.3c-0.1-0.7-0.2-1.4-0.2-2.1l0-2.3
		c0-1.6-0.3-2.6-0.9-3.1C179.6,63.1,178.6,62.8,177.1,62.8z M180.2,58.4c1-0.5,1.5-1.4,1.5-2.8c0-1.5-0.5-2.5-1.5-3
		c-0.6-0.3-1.4-0.4-2.5-0.4h-5.9v6.6h5.8C178.7,58.8,179.6,58.6,180.2,58.4z"/>
	<path class="st0" d="M190.8,48h5.1v24.4h-5.1V48z"/>
	<path class="st0" d="M220.4,72.4h-5.1l-10-17.4v17.4h-4.8V48h5.4l9.7,17.1V48h4.8V72.4z"/>
	<path class="st0" d="M242.9,48v4.3h-7.3v20.1h-5.1V52.3h-7.3V48H242.9z"/>
</g>
<line class="st2" x1="88.4" y1="87" x2="142" y2="87"/>
</svg>
